<svg xmlns="http://www.w3.org/2000/svg">
    <defs>
        <symbol id="icon-play" viewBox="-5.0 -10.0 110.0 135.0">
            <svg xmlns="http://www.w3.org/2000/svg" version="1.1" viewBox="-5.0 -10.0 110.0 135.0">
                <path
                    d="m50 10c-22.059 0-40 17.941-40 40s17.941 40 40 40 40-17.941 40-40-17.949-40-40-40zm17.738 43.352-24.078 13.898c-2.5781 1.4883-5.8008-0.37109-5.8008-3.3516v-27.801c0-2.9805 3.2188-4.8398 5.8008-3.3516l24.078 13.898c2.5703 1.4883 2.5703 5.2109 0 6.6992z" />
                <text x="0.0" y="117.5" font-size="5.0" font-weight="bold"
                    font-family="Arbeit Regular, Helvetica, Arial-Unicode, Arial, Sans-serif" fill="#000000">Created by
                    Kosong Tujuh</text><text x="0.0" y="122.5" font-size="5.0" font-weight="bold"
                    font-family="Arbeit Regular, Helvetica, Arial-Unicode, Arial, Sans-serif" fill="#000000">from Noun
                    Project</text>
            </svg>
        </symbol>
        <symbol id="icon-rate" viewBox="0 0 50 62.5">
            <svg xmlns="http://www.w3.org/2000/svg" xmlns:xlink="http://www.w3.org/1999/xlink" version="1.1" x="0px"
                y="0px" viewBox="0 0 50 62.5" enable-background="new 0 0 50 50" xml:space="preserve">
                <path
                    d="M46.798,33.858l-7.796-1.135l-2.099-4.244l3.459-3.37c0.272-0.266,0.37-0.663,0.253-1.025  c-0.118-0.362-0.431-0.626-0.808-0.681l-9.61-1.395l-4.301-8.709c-0.336-0.683-1.457-0.682-1.793,0l-4.3,8.709l-9.611,1.395  c-0.377,0.055-0.69,0.318-0.808,0.681c-0.118,0.362-0.02,0.759,0.253,1.025l3.458,3.372l-2.097,4.243l-7.797,1.135  c-0.376,0.055-0.689,0.318-0.807,0.681c-0.118,0.361-0.02,0.759,0.253,1.024l5.641,5.499l-1.331,7.769  c-0.064,0.375,0.09,0.755,0.398,0.979c0.308,0.223,0.717,0.253,1.053,0.075l6.975-3.67l6.973,3.67  C22.503,49.962,22.664,50,22.823,50c0.207,0,0.414-0.064,0.588-0.19c0.308-0.225,0.462-0.604,0.397-0.979l-1.333-7.769l2.526-2.462  l2.525,2.461L26.19,48.83c-0.064,0.376,0.09,0.755,0.397,0.979c0.308,0.225,0.717,0.254,1.054,0.076l6.976-3.67l6.976,3.67  C41.739,49.962,41.899,50,42.059,50c0.207,0,0.413-0.064,0.588-0.19c0.308-0.224,0.462-0.604,0.397-0.979l-1.329-7.77l5.638-5.498  c0.272-0.266,0.37-0.663,0.253-1.024C47.487,34.177,47.175,33.913,46.798,33.858z M20.611,23.912  c0.326-0.047,0.607-0.252,0.753-0.547L25,16.001l3.637,7.364c0.146,0.295,0.427,0.5,0.753,0.547l8.125,1.179l-5.885,5.735  c-0.235,0.229-0.343,0.561-0.287,0.885l1.388,8.091l-7.265-3.821c-0.292-0.154-0.64-0.155-0.931,0l-7.268,3.822l1.386-8.092  c0.055-0.324-0.052-0.655-0.288-0.885l-5.881-5.734L20.611,23.912z M15.85,44.2c-0.292-0.154-0.64-0.154-0.932,0l-5.647,2.972  l1.077-6.29c0.055-0.324-0.052-0.655-0.288-0.885l-4.566-4.451l6.313-0.919c0.325-0.047,0.607-0.251,0.752-0.546l2.042-4.133  l1.992,1.942l-1.64,9.571c-0.064,0.375,0.09,0.755,0.398,0.979c0.308,0.223,0.717,0.253,1.053,0.075l4.054-2.132  c-0.056,0.157-0.073,0.328-0.044,0.498l1.079,6.289L15.85,44.2z M39.942,39.997c-0.235,0.229-0.343,0.561-0.287,0.885l1.076,6.29  L35.083,44.2c-0.291-0.154-0.641-0.154-0.932,0l-5.646,2.971l1.081-6.288c0.029-0.17,0.012-0.34-0.043-0.498l4.05,2.131  c0.146,0.077,0.307,0.115,0.466,0.115c0.207,0,0.413-0.064,0.588-0.19c0.308-0.225,0.462-0.604,0.397-0.979l-1.642-9.57l1.995-1.944  l2.044,4.134c0.146,0.295,0.427,0.499,0.753,0.546l6.313,0.919L39.942,39.997z" />
                <path
                    d="M25,9.211c0.553,0,1-0.448,1-1V1c0-0.552-0.447-1-1-1c-0.552,0-1,0.448-1,1v7.211C24,8.763,24.448,9.211,25,9.211z" />
                <path
                    d="M16.954,11.442c0.194,0.191,0.447,0.286,0.7,0.286c0.259,0,0.518-0.1,0.714-0.3c0.387-0.394,0.381-1.027-0.014-1.414  L13.22,4.977c-0.394-0.386-1.027-0.381-1.414,0.014c-0.387,0.394-0.381,1.027,0.014,1.414L16.954,11.442z" />
                <path
                    d="M3.088,16.705l8.418,1.282c0.051,0.008,0.102,0.011,0.152,0.011c0.485,0,0.912-0.354,0.987-0.85  c0.083-0.546-0.292-1.056-0.838-1.139l-8.418-1.282c-0.54-0.083-1.056,0.292-1.139,0.838C2.167,16.111,2.542,16.621,3.088,16.705z" />
                <path
                    d="M32.346,11.727c0.253,0,0.506-0.095,0.7-0.286l5.135-5.038c0.395-0.387,0.4-1.02,0.014-1.414  c-0.388-0.396-1.021-0.399-1.414-0.014l-5.135,5.038c-0.395,0.387-0.4,1.02-0.014,1.414C31.828,11.627,32.087,11.727,32.346,11.727z  " />
                <path
                    d="M37.357,17.148c0.075,0.495,0.501,0.85,0.987,0.85c0.05,0,0.101-0.003,0.151-0.011l8.416-1.282  c0.546-0.083,0.921-0.593,0.838-1.139s-0.596-0.925-1.139-0.838l-8.416,1.282C37.649,16.093,37.274,16.603,37.357,17.148z" />
                <text x="0" y="65" fill="#000000" font-size="5px" font-weight="bold"
                    font-family="'Helvetica Neue', Helvetica, Arial-Unicode, Arial, Sans-serif">Created by Alex
                    Burte</text><text x="0" y="70" fill="#000000" font-size="5px" font-weight="bold"
                    font-family="'Helvetica Neue', Helvetica, Arial-Unicode, Arial, Sans-serif">from the Noun
                    Project</text>
            </svg>
        </symbol>
        <symbol id="icon-review" viewBox="-5.0 -10.0 110.0 135.0">
            <svg xmlns="http://www.w3.org/2000/svg" version="1.1" viewBox="-5.0 -10.0 110.0 135.0">
                <path
                    d="m11.895 84.055 21.598-16.855c0.70312-0.65234 1.6484-1.0547 2.6836-1.0547h51.949l0.003906-54.273h-76.258l0.023437 72.18zm12.664-33.352c-2.1797 0-3.9453-1.7656-3.9453-3.9453 0-2.1797 1.7656-3.9453 3.9453-3.9453h27.246c2.1797 0 3.9453 1.7656 3.9453 3.9453 0 2.1797-1.7656 3.9453-3.9453 3.9453zm0-15.496c-2.1797 0-3.9453-1.7656-3.9453-3.9453 0-2.1797 1.7656-3.9453 3.9453-3.9453h50.879c2.1797 0 3.9453 1.7656 3.9453 3.9453 0 2.1797-1.7656 3.9453-3.9453 3.9453zm42.809 15.496c-2.1797 0-3.9453-1.7656-3.9453-3.9453 0-2.1797 1.7656-3.9453 3.9453-3.9453h8.0703c2.1797 0 3.9453 1.7656 3.9453 3.9453 0 2.1797-1.7656 3.9453-3.9453 3.9453zm-29.859 23.332-27.102 21.148c-2.5469 1.9922-6.3438 0.20312-6.3477-3.0977l-0.078125-84.156c-0.003907-2.1797 1.7656-3.9453 3.9453-3.9453h84.141c2.1797 0 3.9453 1.7656 3.9453 3.9453v62.16c0 2.1797-1.7656 3.9453-3.9453 3.9453h-54.562z"
                    fill-rule="evenodd" />
                <text x="0.0" y="117.5" font-size="5.0" font-weight="bold"
                    font-family="Arbeit Regular, Helvetica, Arial-Unicode, Arial, Sans-serif" fill="#000000">Created by
                    etika ariatna</text><text x="0.0" y="122.5" font-size="5.0" font-weight="bold"
                    font-family="Arbeit Regular, Helvetica, Arial-Unicode, Arial, Sans-serif" fill="#000000">from Noun
                    Project</text>
            </svg>
        </symbol>
        <symbol id="icon-rec" viewBox="-5.0 -10.0 110.0 135.0">
            <svg xmlns="http://www.w3.org/2000/svg" version="1.1" viewBox="-5.0 -10.0 110.0 135.0">
                <g>
                    <path
                        d="m78.398 47.102-3.6992-11.398c-0.60156-1.8984-1.8008-3.6016-3.5-4.8008l-9.6992-7c-1.6016-1.1992-3.6016-1.8008-5.6016-1.8008h-11.898c-2 0-4 0.60156-5.6016 1.8008l-9.6992 7c-1.6016 1.1992-2.8008 2.8008-3.5 4.8008l-3.6992 11.398c-0.60156 1.8984-0.60156 4 0 5.8984l3.6992 11.398c0.60156 1.8984 1.8008 3.6016 3.5 4.8008l9.6992 7c1.6016 1.1992 3.6016 1.8008 5.6016 1.8008h12c2 0 4-0.60156 5.6016-1.8008l9.6992-7c1.6016-1.1992 2.8008-2.8008 3.5-4.8008l3.6992-11.398c0.5-2 0.5-4-0.10156-5.8984zm-5.6992 5.7969-2.6016 8c-0.60156 1.8984-1.8008 3.6016-3.5 4.8008l-6.8008 5c-1.6016 1.1992-3.6016 1.8008-5.6016 1.8008h-8.3984c-2 0-4-0.60156-5.6016-1.8008l-6.8008-5c-1.6016-1.1992-2.8008-2.8008-3.5-4.8008l-2.6016-8c-0.60156-1.8984-0.60156-4 0-5.8984l2.6016-8c0.60156-1.8984 1.8008-3.6016 3.5-4.8008l6.8008-5c1.6016-1.1992 3.6016-1.8008 5.6016-1.8008h8.3984c2 0 4 0.60156 5.6016 1.8008l6.8008 5c1.6016 1.1992 2.8008 2.8008 3.5 4.8008l2.6016 8c0.60156 2 0.60156 4 0 5.8984z" />
                    <path
                        d="m67.801 40.301c-0.60156-1.6992-1.6016-3.1992-3.1016-4.1992l-6.1016-4.3984c-1.3984-1-3.1992-1.6016-5-1.6016h-7.5c-1.8008 0-3.5 0.60156-5 1.6016l-6.1016 4.3984c-1.3984 1-2.5 2.5-3.1016 4.1992l-2.3008 7.1016c-0.60156 1.6992-0.60156 3.5 0 5.1992l2.3008 7.1016c0.60156 1.6992 1.6016 3.1992 3.1016 4.1992l6.1016 4.3984c1.3984 1 3.1992 1.6016 5 1.6016h7.5c1.8008 0 3.5-0.60156 5-1.6016l6.1016-4.3984c1.3984-1 2.5-2.5 3.1016-4.1992l2.3008-7.1016c0.60156-1.6992 0.60156-3.5 0-5.1992zm-12.402 9.3008-7.3984 7.5-7.3984-7.3984 2.6016-2.6016 4.8984 4.8984 9-9 2.6016 2.6016z" />
                </g>
                <text x="0.0" y="117.5" font-size="5.0" font-weight="bold"
                    font-family="Arbeit Regular, Helvetica, Arial-Unicode, Arial, Sans-serif" fill="#000000">Created by
                    Marco Livolsi</text><text x="0.0" y="122.5" font-size="5.0" font-weight="bold"
                    font-family="Arbeit Regular, Helvetica, Arial-Unicode, Arial, Sans-serif" fill="#000000">from Noun
                    Project</text>
            </svg>
        </symbol>
        <symbol id="icon-money" viewBox="-5.0 -10.0 110.0 135.0">
            <svg xmlns="http://www.w3.org/2000/svg" version="1.1" viewBox="-5.0 -10.0 110.0 135.0">
                <path
                    d="m88.891 29.211h-3.8984v-3.8984l-0.003907-0.003906c0-0.29297-0.11719-0.57812-0.32422-0.78516-0.21094-0.20703-0.49219-0.32422-0.78516-0.32422h-72.77c-0.60938 0-1.1094 0.49609-1.1094 1.1094v44.371c0 0.61328 0.49609 1.1094 1.1094 1.1094h3.8984v3.8984l0.003907 0.003906c0 0.61328 0.5 1.1094 1.1094 1.1094h72.77c0.60938 0 1.1094-0.49609 1.1094-1.1094v-44.371c0-0.29687-0.11719-0.57812-0.32422-0.78516-0.21094-0.21094-0.49219-0.32422-0.78516-0.32422zm-76.668 39.359v-42.152h70.543v2.7891l-66.645 0.003907c-0.61328 0-1.1094 0.49609-1.1094 1.1094v38.25zm75.555 5.0117h-70.543v-42.152h70.543zm-66.566-9.1367c2.5039 0.003907 4.5352 2.0312 4.5391 4.5391 0 0.29297 0.11719 0.57422 0.32422 0.78516 0.20703 0.20703 0.49219 0.32422 0.78516 0.32422h51.293c0.29297 0 0.57812-0.11719 0.78516-0.32422 0.20703-0.21094 0.32422-0.49219 0.32422-0.78516 0.003906-2.5078 2.0352-4.5352 4.5391-4.5391 0.29297 0 0.57812-0.11719 0.78516-0.32422 0.20703-0.20703 0.32422-0.49219 0.32422-0.78516v-21.66c0-0.29297-0.11719-0.57812-0.32422-0.78516-0.20703-0.20703-0.49219-0.32422-0.78516-0.32422-2.5039-0.003906-4.5352-2.0312-4.5391-4.5391 0-0.29297-0.11719-0.57422-0.32422-0.78516-0.20703-0.20703-0.49219-0.32422-0.78516-0.32422h-51.293c-0.29297 0-0.57812 0.11719-0.78516 0.32422-0.20703 0.21094-0.32422 0.49219-0.32422 0.78516-0.003906 2.5078-2.0352 4.5352-4.5391 4.5391-0.29297 0-0.57813 0.11719-0.78516 0.32422s-0.32422 0.49219-0.32422 0.78516v21.66c0 0.29297 0.11719 0.57812 0.32422 0.78516 0.20703 0.20703 0.49219 0.32422 0.78516 0.32422zm1.1133-21.746c2.8477-0.48047 5.0781-2.7109 5.5547-5.5586h49.254c0.47656 2.8477 2.707 5.0781 5.5547 5.5586v19.617c-2.8438 0.47656-5.0742 2.707-5.5547 5.5547h-49.254c-0.48047-2.8477-2.7109-5.0781-5.5547-5.5547zm26.699 7.4336c0.003906-1.4922 0.95703-2.8203 2.375-3.2969v-0.66797c0-0.61328 0.49609-1.1094 1.1094-1.1094 0.61328 0 1.1133 0.49609 1.1133 1.1094v0.66797c0.57812 0.19141 1.0938 0.53516 1.5 0.98828 0.40625 0.46094 0.36328 1.1602-0.09375 1.5703-0.46094 0.40625-1.1602 0.36328-1.5703-0.09375-0.28125-0.32422-0.71094-0.48047-1.1367-0.41406-0.42187 0.0625-0.78516 0.33984-0.96094 0.73047-0.17969 0.39062-0.14453 0.84375 0.089844 1.207 0.23438 0.35938 0.63281 0.57812 1.0625 0.57422 1.707 0 3.1641 1.2383 3.4414 2.9258 0.27344 1.6836-0.71094 3.3203-2.332 3.8672v0.66406c0 0.61328-0.49609 1.1133-1.1094 1.1133s-1.1094-0.5-1.1094-1.1133v-0.66406c-0.57812-0.19531-1.0977-0.53516-1.5-0.99219-0.41016-0.46094-0.36719-1.1602 0.09375-1.5703 0.45703-0.40625 1.1602-0.36328 1.5664 0.09375 0.28516 0.32422 0.71094 0.48047 1.1367 0.41406 0.42578-0.0625 0.78906-0.33984 0.96484-0.73047 0.17578-0.39062 0.14063-0.84375-0.09375-1.207-0.23047-0.35938-0.63281-0.57422-1.0625-0.57422-0.92578 0-1.8125-0.37109-2.4688-1.0234-0.65234-0.65625-1.0195-1.543-1.0195-2.4688zm3.4844 13.941v0.003906c4.6797-0.003906 8.8945-2.8203 10.688-7.1445 1.7891-4.3203 0.79688-9.2969-2.5078-12.605-3.3086-3.3086-8.2852-4.2969-12.605-2.5078-4.3242 1.7891-7.1445 6.0078-7.1445 10.688 0.007812 6.3828 5.1836 11.559 11.57 11.566zm0-20.914v0.003906c3.7812 0 7.1875 2.2773 8.6367 5.7695 1.4453 3.4922 0.64453 7.5117-2.0273 10.184-2.6719 2.6719-6.6914 3.4727-10.184 2.0273-3.4922-1.4492-5.7695-4.8555-5.7695-8.6367 0.003907-5.1562 4.1836-9.3398 9.3438-9.3477zm-21.621 12.789c1.3945 0 2.6484-0.83984 3.1836-2.125 0.53125-1.2891 0.23828-2.7695-0.74609-3.7539-0.98828-0.98437-2.4688-1.2773-3.7539-0.74609-1.2891 0.53125-2.1289 1.7891-2.1289 3.1836 0.003906 1.8984 1.543 3.4414 3.4453 3.4414zm0-4.6641c0.49609 0 0.94141 0.29688 1.1289 0.75391 0.19141 0.45703 0.085937 0.98047-0.26562 1.332-0.34766 0.34766-0.875 0.45312-1.332 0.26562-0.45703-0.19141-0.75391-0.63672-0.75391-1.1289 0-0.67578 0.54688-1.2227 1.2227-1.2227zm43.238 4.6641c1.3945 0 2.6484-0.83984 3.1836-2.125 0.53125-1.2891 0.23828-2.7695-0.75-3.7539-0.98438-0.98437-2.4648-1.2773-3.75-0.74609-1.2891 0.53125-2.1289 1.7891-2.1289 3.1836 0.003906 1.8984 1.543 3.4375 3.4453 3.4414zm0-4.6641c0.49219 0 0.9375 0.29688 1.125 0.75391 0.19141 0.45703 0.085938 0.98438-0.26562 1.332-0.34766 0.34766-0.875 0.45312-1.332 0.26172-0.45312-0.1875-0.75391-0.63281-0.75391-1.125 0-0.32812 0.13281-0.63672 0.35937-0.86719 0.23047-0.23047 0.54297-0.35547 0.86719-0.35547z" />
                <text x="0.0" y="117.5" font-size="5.0" font-weight="bold"
                    font-family="Arbeit Regular, Helvetica, Arial-Unicode, Arial, Sans-serif" fill="#000000">Created by
                    ramacae</text><text x="0.0" y="122.5" font-size="5.0" font-weight="bold"
                    font-family="Arbeit Regular, Helvetica, Arial-Unicode, Arial, Sans-serif" fill="#000000">from Noun
                    Project</text>
            </svg>
        </symbol>
        <symbol id="icon-user" viewBox="0 0 48 60">
            <svg xmlns="http://www.w3.org/2000/svg" xmlns:xlink="http://www.w3.org/1999/xlink" version="1.1" x="0px"
                y="0px" viewBox="0 0 48 60" style="enable-background:new 0 0 48 48;" xml:space="preserve">
                <path
                    d="M37,31v12c0,0.552-0.447,1-1,1H12c-0.553,0-1-0.448-1-1V31c0-5.176,3.954-9.446,9-9.949c-2.958-1.476-5-4.526-5-8.051  c0-4.962,4.037-9,9-9s9,4.038,9,9c0,3.525-2.041,6.574-5,8.051C33.046,21.554,37,25.824,37,31z" />
                <text x="0" y="63" fill="#000000" font-size="5px" font-weight="bold"
                    font-family="'Helvetica Neue', Helvetica, Arial-Unicode, Arial, Sans-serif">Created by
                    AbtoCreative</text><text x="0" y="68" fill="#000000" font-size="5px" font-weight="bold"
                    font-family="'Helvetica Neue', Helvetica, Arial-Unicode, Arial, Sans-serif">from the Noun
                    Project</text>
            </svg>
        </symbol>
    </defs>
</svg>