<svg xmlns="http://www.w3.org/2000/svg" version="1.1" viewBox="-5.0 -10.0 110.0 135.0">
 <g>
  <path d="m78.398 47.102-3.6992-11.398c-0.60156-1.8984-1.8008-3.6016-3.5-4.8008l-9.6992-7c-1.6016-1.1992-3.6016-1.8008-5.6016-1.8008h-11.898c-2 0-4 0.60156-5.6016 1.8008l-9.6992 7c-1.6016 1.1992-2.8008 2.8008-3.5 4.8008l-3.6992 11.398c-0.60156 1.8984-0.60156 4 0 5.8984l3.6992 11.398c0.60156 1.8984 1.8008 3.6016 3.5 4.8008l9.6992 7c1.6016 1.1992 3.6016 1.8008 5.6016 1.8008h12c2 0 4-0.60156 5.6016-1.8008l9.6992-7c1.6016-1.1992 2.8008-2.8008 3.5-4.8008l3.6992-11.398c0.5-2 0.5-4-0.10156-5.8984zm-5.6992 5.7969-2.6016 8c-0.60156 1.8984-1.8008 3.6016-3.5 4.8008l-6.8008 5c-1.6016 1.1992-3.6016 1.8008-5.6016 1.8008h-8.3984c-2 0-4-0.60156-5.6016-1.8008l-6.8008-5c-1.6016-1.1992-2.8008-2.8008-3.5-4.8008l-2.6016-8c-0.60156-1.8984-0.60156-4 0-5.8984l2.6016-8c0.60156-1.8984 1.8008-3.6016 3.5-4.8008l6.8008-5c1.6016-1.1992 3.6016-1.8008 5.6016-1.8008h8.3984c2 0 4 0.60156 5.6016 1.8008l6.8008 5c1.6016 1.1992 2.8008 2.8008 3.5 4.8008l2.6016 8c0.60156 2 0.60156 4 0 5.8984z"/>
  <path d="m67.801 40.301c-0.60156-1.6992-1.6016-3.1992-3.1016-4.1992l-6.1016-4.3984c-1.3984-1-3.1992-1.6016-5-1.6016h-7.5c-1.8008 0-3.5 0.60156-5 1.6016l-6.1016 4.3984c-1.3984 1-2.5 2.5-3.1016 4.1992l-2.3008 7.1016c-0.60156 1.6992-0.60156 3.5 0 5.1992l2.3008 7.1016c0.60156 1.6992 1.6016 3.1992 3.1016 4.1992l6.1016 4.3984c1.3984 1 3.1992 1.6016 5 1.6016h7.5c1.8008 0 3.5-0.60156 5-1.6016l6.1016-4.3984c1.3984-1 2.5-2.5 3.1016-4.1992l2.3008-7.1016c0.60156-1.6992 0.60156-3.5 0-5.1992zm-12.402 9.3008-7.3984 7.5-7.3984-7.3984 2.6016-2.6016 4.8984 4.8984 9-9 2.6016 2.6016z"/>
 </g>
<text x="0.0" y="117.5" font-size="5.0" font-weight="bold" font-family="Arbeit Regular, Helvetica, Arial-Unicode, Arial, Sans-serif" fill="#000000">Created by Marco Livolsi</text><text x="0.0" y="122.5" font-size="5.0" font-weight="bold" font-family="Arbeit Regular, Helvetica, Arial-Unicode, Arial, Sans-serif" fill="#000000">from Noun Project</text></svg>