<svg xmlns="http://www.w3.org/2000/svg" version="1.1" viewBox="-5.0 -10.0 110.0 135.0">
 <path d="m5.6172 56.555h21.152c1.707 0 3.1094-1.3984 3.1094-3.1094l-0.003906-41.367c0-1.7148-1.3984-3.1172-3.1094-3.1172h-21.148c-1.7148 0-3.1172 1.3984-3.1172 3.1172v41.367c0 1.7109 1.3984 3.1094 3.1172 3.1094zm45.633 31.031c1.6406 8.3125 15.246 0.65625 16.141-12.742 0.26953-4.0977-0.15625-8.8672-1.1602-14.195h19.445c8.0859-0.31641 15.145-6.1094 10.16-15.617 1.1367-4.1445 1.3047-9.0078-1.7773-10.926 0.38672-6.5391-1.4219-10.59-4.8086-13.793-0.22266-3.2695-0.92188-6.1758-2.4961-8.4102-2.6133-3.6875-4.7305-2.8047-8.8438-2.8047l-32.836 0.003906c-5.2031 0-8.0391 1.4297-11.441 5.6992v36.574c9.7891 2.6445 14.992 16.035 17.617 24.824z" fill-rule="evenodd"/>
<text x="0.0" y="117.5" font-size="5.0" font-weight="bold" font-family="Arbeit Regular, Helvetica, Arial-Unicode, Arial, Sans-serif" fill="#000000">Created by lianaa</text><text x="0.0" y="122.5" font-size="5.0" font-weight="bold" font-family="Arbeit Regular, Helvetica, Arial-Unicode, Arial, Sans-serif" fill="#000000">from Noun Project</text></svg>