<svg xmlns="http://www.w3.org/2000/svg" version="1.1" viewBox="-5.0 -10.0 110.0 135.0">
 <path d="m40.621 70.242c0 7.8047-6.3242 14.133-14.129 14.133h-4.8711c-4.4141 0-8.625-1.8672-11.582-5.1406-2.9609-3.2734-4.4023-7.6484-3.9609-12.039l2.0234-20.27c0.89063-8.9023 8.3789-15.676 17.32-15.676h49.152c8.9414 0 16.426 6.7734 17.32 15.676l2.0234 20.27c0.44141 4.3906-1 8.7656-3.9609 12.039-2.9609 3.2734-7.168 5.1406-11.586 5.1406h-4.8711c-7.8008 0-14.129-6.3281-14.129-14.133v-0.003907c0-0.39453-0.15625-0.77344-0.4375-1.0547-0.27734-0.27734-0.65234-0.43359-1.0469-0.43359h-15.777c-0.39453 0-0.76953 0.15625-1.0508 0.43359-0.27734 0.28125-0.4375 0.66016-0.4375 1.0547zm-17.188-13.992v1.5625c0 1.7266 1.4023 3.125 3.125 3.125 1.7266 0 3.125-1.3984 3.125-3.125v-1.5625h1.5625c1.7266 0 3.125-1.3984 3.125-3.125s-1.3984-3.125-3.125-3.125h-1.5625v-1.5625c0-1.7266-1.3984-3.125-3.125-3.125-1.7227 0-3.125 1.3984-3.125 3.125v1.5625h-1.5625c-1.7227 0-3.125 1.3984-3.125 3.125s1.4023 3.125 3.125 3.125zm54.688-6.25c-1.7227 0-3.125 1.3984-3.125 3.125s1.4023 3.125 3.125 3.125c1.7266 0 3.125-1.3984 3.125-3.125s-1.3984-3.125-3.125-3.125zm-6.25 6.25c-1.7227 0-3.125 1.3984-3.125 3.125s1.4023 3.125 3.125 3.125c1.7266 0 3.125-1.3984 3.125-3.125s-1.3984-3.125-3.125-3.125zm0-12.5c-1.7227 0-3.125 1.3984-3.125 3.125s1.4023 3.125 3.125 3.125c1.7266 0 3.125-1.3984 3.125-3.125s-1.3984-3.125-3.125-3.125zm-6.25 6.25c-1.7227 0-3.125 1.3984-3.125 3.125s1.4023 3.125 3.125 3.125c1.7266 0 3.125-1.3984 3.125-3.125s-1.3984-3.125-3.125-3.125zm-18.215-25c1.2852-3.6406 4.7578-6.25 8.8398-6.25h6.25c1.7266 0 3.125-1.3984 3.125-3.125v-3.125c0-1.7266 1.4023-3.125 3.125-3.125 1.7266 0 3.125 1.3984 3.125 3.125v3.125c0 5.1797-4.1953 9.375-9.375 9.375z" fill-rule="evenodd"/>
<text x="0.0" y="117.5" font-size="5.0" font-weight="bold" font-family="Arbeit Regular, Helvetica, Arial-Unicode, Arial, Sans-serif" fill="#000000">Created by Yudhi Restu Pebriyanto</text><text x="0.0" y="122.5" font-size="5.0" font-weight="bold" font-family="Arbeit Regular, Helvetica, Arial-Unicode, Arial, Sans-serif" fill="#000000">from Noun Project</text></svg>