<svg xmlns="http://www.w3.org/2000/svg" version="1.1" viewBox="-5.0 -10.0 110.0 135.0">
 <path d="m88.891 29.211h-3.8984v-3.8984l-0.003907-0.003906c0-0.29297-0.11719-0.57812-0.32422-0.78516-0.21094-0.20703-0.49219-0.32422-0.78516-0.32422h-72.77c-0.60938 0-1.1094 0.49609-1.1094 1.1094v44.371c0 0.61328 0.49609 1.1094 1.1094 1.1094h3.8984v3.8984l0.003907 0.003906c0 0.61328 0.5 1.1094 1.1094 1.1094h72.77c0.60938 0 1.1094-0.49609 1.1094-1.1094v-44.371c0-0.29687-0.11719-0.57812-0.32422-0.78516-0.21094-0.21094-0.49219-0.32422-0.78516-0.32422zm-76.668 39.359v-42.152h70.543v2.7891l-66.645 0.003907c-0.61328 0-1.1094 0.49609-1.1094 1.1094v38.25zm75.555 5.0117h-70.543v-42.152h70.543zm-66.566-9.1367c2.5039 0.003907 4.5352 2.0312 4.5391 4.5391 0 0.29297 0.11719 0.57422 0.32422 0.78516 0.20703 0.20703 0.49219 0.32422 0.78516 0.32422h51.293c0.29297 0 0.57812-0.11719 0.78516-0.32422 0.20703-0.21094 0.32422-0.49219 0.32422-0.78516 0.003906-2.5078 2.0352-4.5352 4.5391-4.5391 0.29297 0 0.57812-0.11719 0.78516-0.32422 0.20703-0.20703 0.32422-0.49219 0.32422-0.78516v-21.66c0-0.29297-0.11719-0.57812-0.32422-0.78516-0.20703-0.20703-0.49219-0.32422-0.78516-0.32422-2.5039-0.003906-4.5352-2.0312-4.5391-4.5391 0-0.29297-0.11719-0.57422-0.32422-0.78516-0.20703-0.20703-0.49219-0.32422-0.78516-0.32422h-51.293c-0.29297 0-0.57812 0.11719-0.78516 0.32422-0.20703 0.21094-0.32422 0.49219-0.32422 0.78516-0.003906 2.5078-2.0352 4.5352-4.5391 4.5391-0.29297 0-0.57813 0.11719-0.78516 0.32422s-0.32422 0.49219-0.32422 0.78516v21.66c0 0.29297 0.11719 0.57812 0.32422 0.78516 0.20703 0.20703 0.49219 0.32422 0.78516 0.32422zm1.1133-21.746c2.8477-0.48047 5.0781-2.7109 5.5547-5.5586h49.254c0.47656 2.8477 2.707 5.0781 5.5547 5.5586v19.617c-2.8438 0.47656-5.0742 2.707-5.5547 5.5547h-49.254c-0.48047-2.8477-2.7109-5.0781-5.5547-5.5547zm26.699 7.4336c0.003906-1.4922 0.95703-2.8203 2.375-3.2969v-0.66797c0-0.61328 0.49609-1.1094 1.1094-1.1094 0.61328 0 1.1133 0.49609 1.1133 1.1094v0.66797c0.57812 0.19141 1.0938 0.53516 1.5 0.98828 0.40625 0.46094 0.36328 1.1602-0.09375 1.5703-0.46094 0.40625-1.1602 0.36328-1.5703-0.09375-0.28125-0.32422-0.71094-0.48047-1.1367-0.41406-0.42187 0.0625-0.78516 0.33984-0.96094 0.73047-0.17969 0.39062-0.14453 0.84375 0.089844 1.207 0.23438 0.35938 0.63281 0.57812 1.0625 0.57422 1.707 0 3.1641 1.2383 3.4414 2.9258 0.27344 1.6836-0.71094 3.3203-2.332 3.8672v0.66406c0 0.61328-0.49609 1.1133-1.1094 1.1133s-1.1094-0.5-1.1094-1.1133v-0.66406c-0.57812-0.19531-1.0977-0.53516-1.5-0.99219-0.41016-0.46094-0.36719-1.1602 0.09375-1.5703 0.45703-0.40625 1.1602-0.36328 1.5664 0.09375 0.28516 0.32422 0.71094 0.48047 1.1367 0.41406 0.42578-0.0625 0.78906-0.33984 0.96484-0.73047 0.17578-0.39062 0.14063-0.84375-0.09375-1.207-0.23047-0.35938-0.63281-0.57422-1.0625-0.57422-0.92578 0-1.8125-0.37109-2.4688-1.0234-0.65234-0.65625-1.0195-1.543-1.0195-2.4688zm3.4844 13.941v0.003906c4.6797-0.003906 8.8945-2.8203 10.688-7.1445 1.7891-4.3203 0.79688-9.2969-2.5078-12.605-3.3086-3.3086-8.2852-4.2969-12.605-2.5078-4.3242 1.7891-7.1445 6.0078-7.1445 10.688 0.007812 6.3828 5.1836 11.559 11.57 11.566zm0-20.914v0.003906c3.7812 0 7.1875 2.2773 8.6367 5.7695 1.4453 3.4922 0.64453 7.5117-2.0273 10.184-2.6719 2.6719-6.6914 3.4727-10.184 2.0273-3.4922-1.4492-5.7695-4.8555-5.7695-8.6367 0.003907-5.1562 4.1836-9.3398 9.3438-9.3477zm-21.621 12.789c1.3945 0 2.6484-0.83984 3.1836-2.125 0.53125-1.2891 0.23828-2.7695-0.74609-3.7539-0.98828-0.98437-2.4688-1.2773-3.7539-0.74609-1.2891 0.53125-2.1289 1.7891-2.1289 3.1836 0.003906 1.8984 1.543 3.4414 3.4453 3.4414zm0-4.6641c0.49609 0 0.94141 0.29688 1.1289 0.75391 0.19141 0.45703 0.085937 0.98047-0.26562 1.332-0.34766 0.34766-0.875 0.45312-1.332 0.26562-0.45703-0.19141-0.75391-0.63672-0.75391-1.1289 0-0.67578 0.54688-1.2227 1.2227-1.2227zm43.238 4.6641c1.3945 0 2.6484-0.83984 3.1836-2.125 0.53125-1.2891 0.23828-2.7695-0.75-3.7539-0.98438-0.98437-2.4648-1.2773-3.75-0.74609-1.2891 0.53125-2.1289 1.7891-2.1289 3.1836 0.003906 1.8984 1.543 3.4375 3.4453 3.4414zm0-4.6641c0.49219 0 0.9375 0.29688 1.125 0.75391 0.19141 0.45703 0.085938 0.98438-0.26562 1.332-0.34766 0.34766-0.875 0.45312-1.332 0.26172-0.45312-0.1875-0.75391-0.63281-0.75391-1.125 0-0.32812 0.13281-0.63672 0.35937-0.86719 0.23047-0.23047 0.54297-0.35547 0.86719-0.35547z"/>
<text x="0.0" y="117.5" font-size="5.0" font-weight="bold" font-family="Arbeit Regular, Helvetica, Arial-Unicode, Arial, Sans-serif" fill="#000000">Created by ramacae</text><text x="0.0" y="122.5" font-size="5.0" font-weight="bold" font-family="Arbeit Regular, Helvetica, Arial-Unicode, Arial, Sans-serif" fill="#000000">from Noun Project</text></svg>