<svg xmlns="http://www.w3.org/2000/svg" xmlns:xlink="http://www.w3.org/1999/xlink" version="1.1" x="0px" y="0px" viewBox="0 0 50 62.5" enable-background="new 0 0 50 50" xml:space="preserve"><path d="M46.798,33.858l-7.796-1.135l-2.099-4.244l3.459-3.37c0.272-0.266,0.37-0.663,0.253-1.025  c-0.118-0.362-0.431-0.626-0.808-0.681l-9.61-1.395l-4.301-8.709c-0.336-0.683-1.457-0.682-1.793,0l-4.3,8.709l-9.611,1.395  c-0.377,0.055-0.69,0.318-0.808,0.681c-0.118,0.362-0.02,0.759,0.253,1.025l3.458,3.372l-2.097,4.243l-7.797,1.135  c-0.376,0.055-0.689,0.318-0.807,0.681c-0.118,0.361-0.02,0.759,0.253,1.024l5.641,5.499l-1.331,7.769  c-0.064,0.375,0.09,0.755,0.398,0.979c0.308,0.223,0.717,0.253,1.053,0.075l6.975-3.67l6.973,3.67  C22.503,49.962,22.664,50,22.823,50c0.207,0,0.414-0.064,0.588-0.19c0.308-0.225,0.462-0.604,0.397-0.979l-1.333-7.769l2.526-2.462  l2.525,2.461L26.19,48.83c-0.064,0.376,0.09,0.755,0.397,0.979c0.308,0.225,0.717,0.254,1.054,0.076l6.976-3.67l6.976,3.67  C41.739,49.962,41.899,50,42.059,50c0.207,0,0.413-0.064,0.588-0.19c0.308-0.224,0.462-0.604,0.397-0.979l-1.329-7.77l5.638-5.498  c0.272-0.266,0.37-0.663,0.253-1.024C47.487,34.177,47.175,33.913,46.798,33.858z M20.611,23.912  c0.326-0.047,0.607-0.252,0.753-0.547L25,16.001l3.637,7.364c0.146,0.295,0.427,0.5,0.753,0.547l8.125,1.179l-5.885,5.735  c-0.235,0.229-0.343,0.561-0.287,0.885l1.388,8.091l-7.265-3.821c-0.292-0.154-0.64-0.155-0.931,0l-7.268,3.822l1.386-8.092  c0.055-0.324-0.052-0.655-0.288-0.885l-5.881-5.734L20.611,23.912z M15.85,44.2c-0.292-0.154-0.64-0.154-0.932,0l-5.647,2.972  l1.077-6.29c0.055-0.324-0.052-0.655-0.288-0.885l-4.566-4.451l6.313-0.919c0.325-0.047,0.607-0.251,0.752-0.546l2.042-4.133  l1.992,1.942l-1.64,9.571c-0.064,0.375,0.09,0.755,0.398,0.979c0.308,0.223,0.717,0.253,1.053,0.075l4.054-2.132  c-0.056,0.157-0.073,0.328-0.044,0.498l1.079,6.289L15.85,44.2z M39.942,39.997c-0.235,0.229-0.343,0.561-0.287,0.885l1.076,6.29  L35.083,44.2c-0.291-0.154-0.641-0.154-0.932,0l-5.646,2.971l1.081-6.288c0.029-0.17,0.012-0.34-0.043-0.498l4.05,2.131  c0.146,0.077,0.307,0.115,0.466,0.115c0.207,0,0.413-0.064,0.588-0.19c0.308-0.225,0.462-0.604,0.397-0.979l-1.642-9.57l1.995-1.944  l2.044,4.134c0.146,0.295,0.427,0.499,0.753,0.546l6.313,0.919L39.942,39.997z"/><path d="M25,9.211c0.553,0,1-0.448,1-1V1c0-0.552-0.447-1-1-1c-0.552,0-1,0.448-1,1v7.211C24,8.763,24.448,9.211,25,9.211z"/><path d="M16.954,11.442c0.194,0.191,0.447,0.286,0.7,0.286c0.259,0,0.518-0.1,0.714-0.3c0.387-0.394,0.381-1.027-0.014-1.414  L13.22,4.977c-0.394-0.386-1.027-0.381-1.414,0.014c-0.387,0.394-0.381,1.027,0.014,1.414L16.954,11.442z"/><path d="M3.088,16.705l8.418,1.282c0.051,0.008,0.102,0.011,0.152,0.011c0.485,0,0.912-0.354,0.987-0.85  c0.083-0.546-0.292-1.056-0.838-1.139l-8.418-1.282c-0.54-0.083-1.056,0.292-1.139,0.838C2.167,16.111,2.542,16.621,3.088,16.705z"/><path d="M32.346,11.727c0.253,0,0.506-0.095,0.7-0.286l5.135-5.038c0.395-0.387,0.4-1.02,0.014-1.414  c-0.388-0.396-1.021-0.399-1.414-0.014l-5.135,5.038c-0.395,0.387-0.4,1.02-0.014,1.414C31.828,11.627,32.087,11.727,32.346,11.727z  "/><path d="M37.357,17.148c0.075,0.495,0.501,0.85,0.987,0.85c0.05,0,0.101-0.003,0.151-0.011l8.416-1.282  c0.546-0.083,0.921-0.593,0.838-1.139s-0.596-0.925-1.139-0.838l-8.416,1.282C37.649,16.093,37.274,16.603,37.357,17.148z"/><text x="0" y="65" fill="#000000" font-size="5px" font-weight="bold" font-family="'Helvetica Neue', Helvetica, Arial-Unicode, Arial, Sans-serif">Created by Alex Burte</text><text x="0" y="70" fill="#000000" font-size="5px" font-weight="bold" font-family="'Helvetica Neue', Helvetica, Arial-Unicode, Arial, Sans-serif">from the Noun Project</text></svg>