<svg xmlns="http://www.w3.org/2000/svg" version="1.1" viewBox="-5.0 -10.0 110.0 135.0">
 <path d="m11.895 84.055 21.598-16.855c0.70312-0.65234 1.6484-1.0547 2.6836-1.0547h51.949l0.003906-54.273h-76.258l0.023437 72.18zm12.664-33.352c-2.1797 0-3.9453-1.7656-3.9453-3.9453 0-2.1797 1.7656-3.9453 3.9453-3.9453h27.246c2.1797 0 3.9453 1.7656 3.9453 3.9453 0 2.1797-1.7656 3.9453-3.9453 3.9453zm0-15.496c-2.1797 0-3.9453-1.7656-3.9453-3.9453 0-2.1797 1.7656-3.9453 3.9453-3.9453h50.879c2.1797 0 3.9453 1.7656 3.9453 3.9453 0 2.1797-1.7656 3.9453-3.9453 3.9453zm42.809 15.496c-2.1797 0-3.9453-1.7656-3.9453-3.9453 0-2.1797 1.7656-3.9453 3.9453-3.9453h8.0703c2.1797 0 3.9453 1.7656 3.9453 3.9453 0 2.1797-1.7656 3.9453-3.9453 3.9453zm-29.859 23.332-27.102 21.148c-2.5469 1.9922-6.3438 0.20312-6.3477-3.0977l-0.078125-84.156c-0.003907-2.1797 1.7656-3.9453 3.9453-3.9453h84.141c2.1797 0 3.9453 1.7656 3.9453 3.9453v62.16c0 2.1797-1.7656 3.9453-3.9453 3.9453h-54.562z" fill-rule="evenodd"/>
<text x="0.0" y="117.5" font-size="5.0" font-weight="bold" font-family="Arbeit Regular, Helvetica, Arial-Unicode, Arial, Sans-serif" fill="#000000">Created by etika ariatna</text><text x="0.0" y="122.5" font-size="5.0" font-weight="bold" font-family="Arbeit Regular, Helvetica, Arial-Unicode, Arial, Sans-serif" fill="#000000">from Noun Project</text></svg>